<mxfile host="65bd71144e">
    <diagram id="51CP2jgnKhPsjbSmXp6V" name="Page-1">
        <mxGraphModel dx="1660" dy="1755" grid="1" gridSize="10" guides="1" tooltips="1" connect="1" arrows="1" fold="1" page="1" pageScale="1" pageWidth="850" pageHeight="1100" math="0" shadow="0">
            <root>
                <mxCell id="0"/>
                <mxCell id="1" parent="0"/>
                <mxCell id="2" value="OPTIMADE DB" style="shape=step;perimeter=stepPerimeter;whiteSpace=wrap;html=1;fixedSize=1;fontColor=#000000;fillColor=none;strokeColor=#000000;" vertex="1" parent="1">
                    <mxGeometry x="200" y="40" width="150" height="40" as="geometry"/>
                </mxCell>
                <mxCell id="3" value="OPTIMADE Query" style="shape=step;perimeter=stepPerimeter;whiteSpace=wrap;html=1;fixedSize=1;fontColor=#000000;fillColor=none;strokeColor=#000000;" vertex="1" parent="1">
                    <mxGeometry x="40" y="40" width="150" height="40" as="geometry"/>
                </mxCell>
                <mxCell id="4" value="DataResource" style="text;html=1;align=center;verticalAlign=middle;resizable=0;points=[];autosize=1;strokeColor=none;fillColor=none;fontColor=#000000;" vertex="1" parent="1">
                    <mxGeometry x="220" y="80" width="100" height="30" as="geometry"/>
                </mxCell>
                <mxCell id="5" value="Filter" style="text;html=1;align=center;verticalAlign=middle;resizable=0;points=[];autosize=1;strokeColor=none;fillColor=none;fontColor=#000000;" vertex="1" parent="1">
                    <mxGeometry x="90" y="80" width="50" height="30" as="geometry"/>
                </mxCell>
            </root>
        </mxGraphModel>
    </diagram>
</mxfile>
